<svg width="154" height="36" viewBox="0 0 154 36" className="logo" xmlns="http://www.w3.org/2000/svg">
    <path d="M9.82193 35.5209L11.7536 28.8137H22.8196L24.7513 35.5209H34.5732L23.5072 0.479088H11.066L0 35.5209H9.82193ZM13.8162 21.6958L17.1556 10.1293H17.4176L20.757 21.6958H13.8162Z" stroke="none"/>
    <path d="M63.6843 13.6198C62.964 4.92776 56.8744 0 48.4276 0C39.3914 0 32.2541 6.29658 32.2541 18C32.2541 29.6521 39.195 36 48.4276 36C58.2495 36 63.226 28.8821 63.6843 22.9278L54.4517 22.8593C53.9933 25.8536 51.9635 27.7186 48.624 27.7186C44.1878 27.7186 41.6177 24.4335 41.6177 18C41.6177 11.9087 44.1059 8.28137 48.6895 8.28137C52.1926 8.28137 54.1898 10.4373 54.4517 13.6198H63.6843Z" stroke="none"/>
    <path d="M65.2526 0.479088V35.5209H74.1579V15.1255H74.4198L81.8844 35.2471H87.2538L94.7184 15.2624H94.9804V35.5209H103.886V0.479088H92.5576L84.7655 20.327H84.3727L76.5806 0.479088H65.2526Z" stroke="none"/>
    <path d="M105.638 35.5209H129.735V27.8555H114.74V21.8327H128.556V14.1673H114.74V8.14449H129.8V0.479088H105.638V35.5209Z" stroke="none"/>
    <path d="M149.446 8.02251C149.256 5.77448 147.646 4.5 145.414 4.5C143.025 4.5 141.139 6.1285 141.139 9.15538C141.139 12.169 142.973 13.8108 145.414 13.8108C148.01 13.8108 149.325 11.9698 149.446 10.4299L147.006 10.4122C146.885 11.1866 146.348 11.6689 145.465 11.6689C144.293 11.6689 143.614 10.8193 143.614 9.15538C143.614 7.57998 144.271 6.64183 145.483 6.64183C146.409 6.64183 146.937 7.19941 147.006 8.02251H149.446Z" stroke="none"/>
    <path d="M154 9C154 13.9706 150.06 18 145.2 18C140.34 18 136.4 13.9706 136.4 9C136.4 4.02944 140.34 0 145.2 0C150.06 0 154 4.02944 154 9ZM138.16 9C138.16 12.9765 141.312 16.2 145.2 16.2C149.088 16.2 152.24 12.9765 152.24 9C152.24 5.02355 149.088 1.8 145.2 1.8C141.312 1.8 138.16 5.02355 138.16 9Z" stroke="none"/>
</svg>
